{"title":"Melodifestivalen.2016.Finalen.SWEDiSH.720p.WEBRiP.H264","uid":13842786,"size":2778789596,"categoryP":"video","categoryS":"hd___tv_shows","magnet":"?xt=urn:btih:6c46c5f088aab1184a2c1e38e987a7ea26514b0b&amp;dn=Melodifestivalen.2016.Finalen.SWEDiSH.720p.WEBRiP.H264&amp;tr=udp%3A%2F%2Ftracker.leechers-paradise.org%3A6969&amp;tr=udp%3A%2F%2Fzer0day.ch%3A1337&amp;tr=udp%3A%2F%2Fopen.demonii.com%3A1337&amp;tr=udp%3A%2F%2Ftracker.coppersurfer.tk%3A6969&amp;tr=udp%3A%2F%2Fexodus.desync.com%3A6969","seeders":0,"leechers":0,"uploader":null,"files":1,"time":1457824660,"description":"Källa: SVT play\r\n\r\n\r\nStartfält:\r\n\r\n01. Panetoz - Håll om mig hårt\r\n02. Lisa Ajax - My Heart Wants Me Dead\r\n03. David Lindgren - We Are Your Tomorrow\r\n04. SaRaha - Kizunguzungu\r\n05. Oscar Zia - Human\r\n06. Ace Wilder - Don't Worry\r\n07. Robin Bengtsson - Constellation Prize\r\n08. Molly Sandén - Youniverse\r\n09. Boris René - Put Your Love on Me\r\n10. Frans - If I Were Sorry\r\n11. Wiktoria - Save Me\r\n12. Samir &amp; Viktor - Bada nakna\r\n\r\n\r\nMediaInfo:\r\n\r\nGeneral\r\nComplete name             : Melodifestivalen.2016.Finalen.SWEDiSH.720p.WEBRiP.H264.mp4\r\nFormat                    : MPEG-4\r\nFormat profile            : Base Media\r\nCodec ID                  : isom\r\nFile size                 : 2.59 GiB\r\nDuration                  : 2h 12mn\r\nOverall bit rate mode     : Variable\r\nOverall bit rate          : 2 801 Kbps\r\nWriting application       : Lavf57.14.100\r\n\r\nVideo\r\nID                        : 1\r\nFormat                    : AVC\r\nFormat/Info               : Advanced Video Codec\r\nFormat profile            :   \r\nFormat settings, CABAC    : Yes\r\nFormat settings, ReFrames : 1 frame\r\nCodec ID                  : avc1\r\nCodec ID/Info             : Advanced Video Coding\r\nDuration                  : 2h 12mn\r\nBit rate                  : 2 700 Kbps\r\nWidth                     : 1 280 pixels\r\nHeight                    : 720 pixels\r\nDisplay aspect ratio      : 16:9\r\nFrame rate mode           : Constant\r\nFrame rate                : 25.000 fps\r\nStandard                  : PAL\r\nColor space               : YUV\r\nChroma subsampling        : 4:2:0\r\nBit depth                 : 8 bits\r\nScan type                 : Progressive\r\nBits/(Pixel*Frame)        : 0.117\r\nStream size               : 2.50 GiB (96%)\r\nColor range               : Full\r\nColor primaries           : BT.601 PAL\r\nTransfer characteristics  : BT.470 System B, BT.470 System G\r\nMatrix coefficients       : BT.601\r\n\r\nAudio\r\nID                        : 2\r\nFormat                    : AAC\r\nFormat/Info               : Advanced Audio Codec\r\nFormat profile            : LC\r\nCodec ID                  : 40\r\nDuration                  : 2h 12mn\r\nBit rate mode             : Variable\r\nBit rate                  : 96.0 Kbps\r\nMaximum bit rate          : 98.3 Kbps\r\nChannel(s)                : 2 channels\r\nChannel positions         : Front: L R\r\nSampling rate             : 48.0 KHz\r\nCompression mode          : Lossy\r\nStream size               : 90.8 MiB (3%)","torrent":{"xt":"urn:btih:6c46c5f088aab1184a2c1e38e987a7ea26514b0b","amp;dn":"Melodifestivalen.2016.Finalen.SWEDiSH.720p.WEBRiP.H264","amp;tr":["udp%3A%2F%2Ftracker.leechers-paradise.org%3A6969","udp%3A%2F%2Fzer0day.ch%3A1337","udp%3A%2F%2Fopen.demonii.com%3A1337","udp%3A%2F%2Ftracker.coppersurfer.tk%3A6969","udp%3A%2F%2Fexodus.desync.com%3A6969"],"infoHash":"6c46c5f088aab1184a2c1e38e987a7ea26514b0b","infoHashBuffer":{"type":"Buffer","data":[108,70,197,240,136,170,177,24,74,44,30,56,233,135,167,234,38,81,75,11]},"announce":[],"urlList":[]}}